<svg width="52" height="34" viewBox="0 0 52 34" fill="none" xmlns="http://www.w3.org/2000/svg">
<path d="M14.4675 10.947C14.4759 10.9331 14.4659 10.9151 14.4495 10.9151C14.4332 10.9151 14.4232 10.8972 14.4314 10.8831C14.9443 9.9962 14.662 8.86567 13.7995 8.33349C12.9266 7.79487 11.775 8.07347 11.2364 8.9464C9.58341 11.5838 8.71048 14.6298 8.67333 17.75C8.65476 20.8517 9.49055 23.9163 11.1064 26.5723C11.4779 27.2037 12.1651 27.5566 12.8894 27.4823C13.2237 27.4823 13.5581 27.3895 13.8552 27.2223C14.7282 26.6837 15.0068 25.5507 14.4867 24.6778C11.9301 20.4538 11.9236 15.1764 14.4675 10.947ZM9.13766 3.33733C9.75057 2.59441 9.67628 1.4986 8.9705 0.829969C8.22758 0.124192 7.05748 0.142765 6.3517 0.885688C-1.50471 9.83791 -2.1362 23.0434 4.81013 32.7385C5.16302 33.2214 5.72021 33.5186 6.31455 33.5186C6.70459 33.5186 7.07605 33.3886 7.39179 33.1657C8.20901 32.5528 8.37616 31.4013 7.78183 30.584C1.85702 22.2819 2.41421 10.9894 9.13766 3.33733ZM45.7452 1.05285C45.0766 0.272777 43.9065 0.198484 43.1264 0.867115C42.3463 1.53575 42.272 2.70585 42.9407 3.48592C49.627 11.1937 50.1099 22.5047 44.0736 30.7326C43.8322 31.0484 43.7207 31.4384 43.7207 31.8284C43.7207 32.85 44.5565 33.6857 45.578 33.6857C46.1724 33.6857 46.7296 33.4071 47.0825 32.9242C50.0356 28.8753 51.7257 24.0649 51.9672 19.0687C52.3015 12.4753 50.0727 6.03043 45.7452 1.05285ZM25.872 7.9806C20.8573 7.9806 16.8083 12.0481 16.8083 17.0443C16.8083 22.0404 20.8758 26.1079 25.872 26.1079C30.8682 26.1079 34.9357 22.0404 34.9357 17.0443C34.9357 12.0481 30.8682 7.9806 25.872 7.9806ZM25.872 22.3562C22.9375 22.3562 20.5601 19.9788 20.5601 17.0443C20.5601 14.1097 22.9375 11.7324 25.872 11.7324C28.8065 11.7324 31.1839 14.1097 31.1839 17.0443C31.1839 19.9788 28.8065 22.3562 25.872 22.3562ZM40.8233 9.08886C40.8233 9.09705 40.8129 9.10065 40.8077 9.09432C40.286 8.45876 39.4226 8.22519 38.6503 8.5378C36.8518 9.27833 38.2548 11.7725 38.8756 13.6157C40.1083 17.2761 39.6989 21.3439 37.6473 24.7335C37.1087 25.6065 37.3873 26.758 38.2602 27.2966C39.1332 27.8352 40.2847 27.5566 40.8233 26.6837C44.1054 21.2692 44.1107 14.5033 40.8394 9.08444C40.8349 9.07694 40.8233 9.08009 40.8233 9.08886Z" fill="#CA2125"/>
</svg>
