<svg width="11" height="12" viewBox="0 0 11 12" fill="none" xmlns="http://www.w3.org/2000/svg">
<path fill-rule="evenodd" clip-rule="evenodd" d="M9.06096 10.9497C9.45607 11.3402 10.0967 11.3402 10.4918 10.9497C10.8869 10.5592 10.8869 9.92602 10.4918 9.5355L6.91475 5.99994L10.4917 2.46443C10.8868 2.07391 10.8868 1.44074 10.4917 1.05022C10.0966 0.659693 9.45602 0.659694 9.06092 1.05022L5.48395 4.58573L1.90698 1.05022C1.51188 0.659696 0.871292 0.659696 0.476189 1.05022C0.0810852 1.44074 0.0810861 2.07391 0.47619 2.46443L4.05316 5.99995L0.476147 9.5355C0.0810438 9.92602 0.0810438 10.5592 0.476147 10.9497C0.871251 11.3402 1.51184 11.3402 1.90694 10.9497L5.48395 7.41416L9.06096 10.9497Z" fill="#001C2D"/>
</svg>
