<svg width="27" height="33" viewBox="0 0 27 33" fill="none" xmlns="http://www.w3.org/2000/svg">
<path d="M9.815 18.208L18.4247 12.8201L9.815 7.43207V18.208ZM13.12 0C5.88234 0 0 5.88234 0 13.12C0 18.1414 2.84396 22.6795 7.30987 24.8847V32.8222L14.4031 26.1622C21.0687 25.5123 26.24 19.8577 26.24 13.12C26.2344 5.88234 20.3521 0 13.12 0ZM13.8477 23.9737L13.4533 24.0015L9.52616 27.6842V23.4349L8.8485 23.1461C4.82141 21.4297 2.21629 17.4915 2.21629 13.1144C2.22185 7.10991 7.10991 2.22185 13.12 2.22185C19.1301 2.22185 24.0182 7.10991 24.0182 13.12C24.0182 19.1301 19.5522 23.6016 13.8532 23.9793L13.8477 23.9737Z" fill="#CA2125"/>
</svg>
