<svg width="12" height="13" viewBox="0 0 12 13" fill="none" xmlns="http://www.w3.org/2000/svg">
<path d="M6.00088 7.27226C7.07398 7.27226 7.94234 8.19085 7.94234 9.32601V12.1565C7.94234 12.3469 8.08884 12.5 8.2671 12.5H11.6752C11.8553 12.5 12 12.345 12 12.1565V5.40147C12 4.93471 11.7864 4.49782 11.4264 4.22897L6.78276 0.761854C6.31328 0.412715 5.68848 0.412715 5.219 0.761854L0.573614 4.22897C0.213561 4.49782 0 4.93471 0 5.40147V12.1565C0 12.3469 0.146492 12.5 0.324754 12.5H3.7329C3.91293 12.5 4.05766 12.345 4.05766 12.1565V9.32601C4.05766 8.19085 4.92602 7.27226 5.99912 7.27226H6.00088Z" fill="#012740"/>
</svg>
