<svg width="20" height="20" viewBox="0 0 20 20" fill="none" xmlns="http://www.w3.org/2000/svg">
<path fill-rule="evenodd" clip-rule="evenodd" d="M12.9545 10.8639C13.3311 10.8639 13.6363 10.5586 13.6363 10.182C13.6363 9.80548 13.3311 9.50022 12.9545 9.50022L10.2273 9.50022L10.2273 6.77295C10.2273 6.39639 9.922 6.09113 9.54544 6.09113C9.16888 6.09113 8.86362 6.39639 8.86362 6.77295L8.86362 9.50022L6.13635 9.50022C5.75979 9.50022 5.45453 9.80548 5.45453 10.182C5.45453 10.5586 5.75979 10.8639 6.13635 10.8639L8.86362 10.8639L8.86362 13.5911C8.86362 13.9677 9.16888 14.2729 9.54544 14.2729C9.922 14.2729 10.2273 13.9677 10.2273 13.5911L10.2273 10.8639L12.9545 10.8639Z" fill="white"/>
</svg>
