<svg xmlns="http://www.w3.org/2000/svg" width="50" height="50" fill="none"><circle cx="25" cy="25" r="25" fill="#004370" opacity="1"/><path fill="#fff" fill-rule="evenodd" d="M29.01 16h-7.02A4.97 4.97 0 0 0 17 20.94v7.42a4.97 4.97 0 0 0 4.99 4.94h7.02A4.97 4.97 0 0 0 34 28.36v-7.42A4.97 4.97 0 0 0 29.01 16Zm3.71 12.36a3.7 3.7 0 0 1-3.71 3.67h-7.02a3.7 3.7 0 0 1-3.71-3.67v-7.42a3.7 3.7 0 0 1 3.71-3.67h7.02a3.7 3.7 0 0 1 3.71 3.67v7.42Zm-7.2-8.33a4.46 4.46 0 0 0-3.24 1.26 4.62 4.62 0 1 0 6.49 6.58c.86-.86 1.34-2 1.37-3.23A4.42 4.42 0 0 0 29 21.42a4.83 4.83 0 0 0-3.47-1.4Zm3.06 4.58a3.07 3.07 0 1 1-5.2-2.2 2.9 2.9 0 0 1 2.1-.83 3.3 3.3 0 0 1 2.37.9c.5.53.75 1.26.73 2.13Zm2.76-4.71c0 .6-.49 1.07-1.09 1.07-.6 0-1.08-.48-1.08-1.07 0-.6.49-1.07 1.08-1.07.6 0 1.09.48 1.09 1.07Z" clip-rule="evenodd"/></svg>