<svg width="40" height="40" viewBox="0 0 40 40" fill="none" xmlns="http://www.w3.org/2000/svg"><rect x="1" y="1" width="38" height="38" rx="19" fill="white"/><rect x="1" y="1" width="38" height="38" rx="19" stroke="#004370" stroke-width="2"/><path fill-rule="evenodd" clip-rule="evenodd" d="M14.8909 19C14.3386 19 13.8909 19.4477 13.8909 20C13.8909 20.5523 14.3386 21 14.8909 21L22.6951 21L20.1595 23.5356C19.769 23.9261 19.769 24.5593 20.1595 24.9498C20.5501 25.3403 21.1832 25.3403 21.5737 24.9498L25.8164 20.7071C25.8408 20.6827 25.8637 20.6574 25.885 20.6312C26.2054 20.2384 26.1825 19.659 25.8164 19.2929L25.8152 19.2917L21.5737 15.0503C21.1832 14.6598 20.5501 14.6598 20.1595 15.0503C19.769 15.4408 19.769 16.074 20.1595 16.4645L22.695 19L14.8909 19Z" fill="#004370"/></svg>