<svg width="34" height="34" viewBox="0 0 34 34" fill="none" xmlns="http://www.w3.org/2000/svg">
<path d="M13.3879 19.5311C14.3134 20.4453 15.5844 21.0048 16.9796 21.0048C18.3749 21.0048 19.6458 20.4453 20.5714 19.5311C21.4969 18.6169 22.0633 17.3615 22.0633 15.9834L22.0357 7.86457C21.9114 6.71839 21.4002 5.77688 20.5714 4.9036C19.6458 3.98938 18.3749 3.42993 16.9796 3.42993C15.5844 3.42993 14.3134 4.00302 13.3879 4.9036C12.4623 5.81782 11.8959 7.07316 11.8959 8.45131V15.9834C11.8959 17.3479 12.4485 18.5896 13.3464 19.4902L13.3879 19.5311ZM24.9643 15.1647C24.5085 15.1647 24.1355 15.5331 24.1355 15.9834C24.1355 17.921 23.3342 19.6948 22.0357 20.9775C20.7371 22.2601 18.9551 23.0515 16.9796 23.0515C13.0425 23.0515 9.82374 19.8722 9.82374 15.9834C9.82374 15.5331 9.45076 15.1647 8.99488 15.1647C8.539 15.1647 8.16602 15.5331 8.16602 15.9834C8.16602 18.3849 9.16065 20.5545 10.7631 22.1373C12.1722 23.5291 14.0648 24.457 16.1646 24.6616V28.9325H13.1668C12.711 28.9325 12.338 29.3009 12.338 29.7512C12.338 30.2015 12.711 30.5699 13.1668 30.5699H20.8338C21.2897 30.5699 21.6627 30.2015 21.6627 29.7512C21.6627 29.3009 21.2897 28.9325 20.8338 28.9325H17.8361V24.6616C19.9359 24.4706 21.8147 23.5427 23.2375 22.1373C24.84 20.5545 25.8346 18.3849 25.8346 15.9834C25.8346 15.5331 25.4617 15.1647 25.0058 15.1647H24.9643Z" fill="#001C2D"/>
</svg>
