<svg width="40" height="40" viewBox="0 0 40 40" fill="none" xmlns="http://www.w3.org/2000/svg"><rect x="39" y="39" width="38" height="38" rx="19" transform="rotate(-180 39 39)" fill="white"/><rect x="39" y="39" width="38" height="38" rx="19" transform="rotate(-180 39 39)" stroke="#004370" stroke-width="2"/><path fill-rule="evenodd" clip-rule="evenodd" d="M25.1091 21C25.6614 21 26.1091 20.5523 26.1091 20C26.1091 19.4477 25.6614 19 25.1091 19L17.3049 19L19.8405 16.4644C20.231 16.0739 20.231 15.4407 19.8405 15.0502C19.4499 14.6597 18.8168 14.6597 18.4263 15.0502L14.1836 19.2929C14.1592 19.3173 14.1363 19.3426 14.115 19.3688C13.7946 19.7616 13.8175 20.341 14.1836 20.7071L14.1848 20.7083L18.4263 24.9497C18.8168 25.3402 19.4499 25.3402 19.8405 24.9497C20.231 24.5592 20.231 23.926 19.8405 23.5355L17.305 21L25.1091 21Z" fill="#004370"/></svg>