<svg width="16" height="16" viewBox="0 0 16 16" fill="none" xmlns="http://www.w3.org/2000/svg">
<path d="M15.2342 15.6257H12.0974V10.7553C12.0974 9.59521 12.0778 8.09812 10.4669 8.09812C8.85598 8.09812 8.5815 9.36513 8.5815 10.671V15.6257H5.44468V5.60946H8.45734V6.97693H8.49982C9.11411 5.93675 10.2545 5.31458 11.47 5.35995C14.6493 5.35995 15.2342 7.43383 15.2342 10.1331V15.6289V15.6257ZM1.90595 4.23876C0.902819 4.23876 0.0859375 3.43189 0.0859375 2.43383C0.0859375 1.43578 0.899551 0.628906 1.90595 0.628906C2.91235 0.628906 3.72596 1.43578 3.72596 2.43383C3.72596 3.43189 2.91235 4.23876 1.90595 4.23876ZM3.47436 15.6257H0.334269V5.60946H3.47436V15.6289V15.6257Z" fill="#004370"/>
</svg>
