<svg width="18" height="18" viewBox="0 0 18 18" fill="none" xmlns="http://www.w3.org/2000/svg">
<path fill-rule="evenodd" clip-rule="evenodd" d="M12.0916 0.636719H5.07248C2.32089 0.636719 0.0820312 2.85319 0.0820312 5.57726V12.9922C0.0820312 15.7167 2.32089 17.9328 5.07248 17.9328H12.0916C14.8435 17.9328 17.082 15.7163 17.082 12.9922V5.57726C17.0824 2.85319 14.8435 0.636719 12.0916 0.636719ZM15.8026 12.9922C15.8026 15.0179 14.1378 16.6661 12.0916 16.6661H5.07248C3.0263 16.6661 1.36148 15.0179 1.36148 12.9922V5.57726C1.36148 3.55155 3.0263 1.90338 5.07248 1.90338H12.0916C14.1378 1.90338 15.8026 3.55155 15.8026 5.57726V12.9922ZM8.60487 4.66597C7.39622 4.63093 6.24522 5.07892 5.36354 5.92649C4.45924 6.7961 3.94067 8.01145 3.94067 9.26077C3.94067 11.7944 6.02298 13.8559 8.58225 13.8559C9.81791 13.8559 10.9784 13.3772 11.8491 12.5076C12.7085 11.6496 13.1964 10.5025 13.2235 9.27775C13.2516 7.99809 12.8541 6.8857 12.0732 6.06053C11.2495 5.18983 10.05 4.70752 8.60487 4.66597ZM11.6597 9.24379C11.6218 10.9617 10.2701 12.3075 8.58188 12.3075C6.8937 12.3075 5.50441 10.9407 5.50441 9.26077C5.50441 8.42729 5.85 7.61693 6.45323 7.03743C7.00829 6.50382 7.72356 6.21263 8.47496 6.21263C8.50306 6.21263 8.53116 6.21299 8.55926 6.21371C9.57888 6.24297 10.3992 6.5562 10.9317 7.11908C11.4269 7.64258 11.6787 8.37743 11.6597 9.24379ZM14.4182 4.53592C14.4182 5.12773 13.9336 5.60749 13.3358 5.60749C12.738 5.60749 12.2534 5.12773 12.2534 4.53592C12.2534 3.94411 12.738 3.46436 13.3358 3.46436C13.9336 3.46436 14.4182 3.94411 14.4182 4.53592Z" fill="#004370"/>
</svg>
