<svg width="50" height="50" viewBox="0 0 50 50" fill="none" xmlns="http://www.w3.org/2000/svg">
<circle cx="25" cy="25" r="25" fill="white"/>
<path fill-rule="evenodd" clip-rule="evenodd" d="M29.0096 16H21.9904C19.2389 16 17 18.2165 17 20.9405V28.3555C17 31.0799 19.2389 33.2961 21.9904 33.2961H29.0096C31.7615 33.2961 34 31.0796 34 28.3555V20.9405C34.0004 18.2165 31.7615 16 29.0096 16ZM32.7205 28.3555C32.7205 30.3812 31.0557 32.0294 29.0096 32.0294H21.9904C19.9443 32.0294 18.2795 30.3812 18.2795 28.3555V20.9405C18.2795 18.9148 19.9443 17.2667 21.9904 17.2667H29.0096C31.0557 17.2667 32.7205 18.9148 32.7205 20.9405V28.3555ZM25.5228 20.0293C24.3142 19.9942 23.1632 20.4422 22.2815 21.2898C21.3772 22.1594 20.8586 23.3747 20.8586 24.6241C20.8586 27.1577 22.9409 29.2192 25.5002 29.2192C26.7359 29.2192 27.8964 28.7405 28.7671 27.8709C29.6265 27.0129 30.1144 25.8658 30.1414 24.641C30.1695 23.3614 29.7721 22.249 28.9912 21.4238C28.1675 20.5531 26.968 20.0708 25.5228 20.0293ZM28.5777 24.6071C28.5397 26.325 27.188 27.6707 25.4998 27.6707C23.8117 27.6707 22.4224 26.304 22.4224 24.6241C22.4224 23.7906 22.768 22.9802 23.3712 22.4007C23.9263 21.8671 24.6415 21.5759 25.3929 21.5759C25.421 21.5759 25.4491 21.5763 25.4772 21.577C26.4968 21.6063 27.3172 21.9195 27.8496 22.4824C28.3449 23.0059 28.5967 23.7407 28.5777 24.6071ZM31.3362 19.8992C31.3362 20.491 30.8516 20.9708 30.2538 20.9708C29.656 20.9708 29.1714 20.491 29.1714 19.8992C29.1714 19.3074 29.656 18.8276 30.2538 18.8276C30.8516 18.8276 31.3362 19.3074 31.3362 19.8992Z" fill="#004370"/>
</svg>
