<svg width="50" height="50" viewBox="0 0 50 50" fill="none" xmlns="http://www.w3.org/2000/svg">
<circle cx="25" cy="25" r="25" fill="white"/>
<path d="M33.1482 31.9968H30.0114V27.1264C30.0114 25.9663 29.9918 24.4692 28.3809 24.4692C26.77 24.4692 26.4956 25.7362 26.4956 27.0421V31.9968H23.3587V21.9806H26.3714V23.348H26.4139C27.0282 22.3078 28.1685 21.6857 29.3841 21.731C32.5634 21.731 33.1482 23.8049 33.1482 26.5042V32V31.9968ZM19.82 20.6099C18.8169 20.6099 18 19.803 18 18.8049C18 17.8069 18.8136 17 19.82 17C20.8264 17 21.64 17.8069 21.64 18.8049C21.64 19.803 20.8264 20.6099 19.82 20.6099ZM21.3884 31.9968H18.2483V21.9806H21.3884V32V31.9968Z" fill="#004370"/>
</svg>
