<svg width="20" height="21" viewBox="0 0 20 21" fill="none" xmlns="http://www.w3.org/2000/svg">
<path fill-rule="evenodd" clip-rule="evenodd" d="M15.0916 14.3661L19.8246 19.0991C20.0078 19.2823 20.0078 19.5786 19.8246 19.7618L18.9435 20.6429C18.7602 20.8262 18.4639 20.8262 18.2807 20.6429L13.5478 15.91C13.462 15.8203 13.4113 15.7034 13.4113 15.5786V15.064C11.9883 16.292 10.1365 17.0367 8.10916 17.0367C3.62963 17.0367 0 13.4071 0 8.92752C0 4.44799 3.62963 0.818359 8.10916 0.818359C12.5887 0.818359 16.2183 4.44799 16.2183 8.92752C16.2183 10.9548 15.4737 12.8067 14.2456 14.2297H14.7602C14.885 14.2297 15.002 14.2765 15.0916 14.3661ZM1.87135 8.92752C1.87135 12.3739 4.66277 15.1653 8.10916 15.1653C11.5556 15.1653 14.347 12.3739 14.347 8.92752C14.347 5.48113 11.5556 2.6897 8.10916 2.6897C4.66277 2.6897 1.87135 5.48113 1.87135 8.92752Z" fill="#004370"/>
</svg>
