<svg width="21" height="22" viewBox="0 0 21 22" fill="none" xmlns="http://www.w3.org/2000/svg">
<g clip-path="url(#clip0_8466_1487)">
<path d="M17.9375 18.4479C17.8658 18.4479 17.794 18.4356 17.7258 18.4129L0.444539 12.5066C0.196039 12.4209 0.0227891 12.1969 0.00178913 11.9353C-0.0174609 11.6736 0.119914 11.4251 0.351789 11.3035L20.0393 1.02227C20.2589 0.909397 20.524 0.926897 20.7235 1.06952C20.9248 1.21302 21.0289 1.45627 20.993 1.70127L18.5868 17.8888C18.5579 18.0813 18.445 18.251 18.2779 18.3525C18.1747 18.4155 18.0565 18.4479 17.9375 18.4479ZM2.31529 11.7585L17.4038 16.9158L19.5047 2.78277L2.31529 11.7585Z" fill="white"/>
<path d="M8.3125 21.0728C8.24425 21.0728 8.17513 21.0623 8.10863 21.0404C7.83825 20.9512 7.65625 20.7001 7.65625 20.4166V14.5103C7.65625 14.3449 7.71925 14.1839 7.83213 14.0623L19.8634 1.15605C20.1101 0.890052 20.5275 0.876927 20.7917 1.12368C21.0569 1.37043 21.0709 1.78605 20.8241 2.05205L8.96875 14.7684V18.4154L11.1589 15.4343C11.3733 15.1438 11.7845 15.0791 12.0768 15.2943C12.369 15.5087 12.4311 15.9199 12.2168 16.2122L8.84187 20.8059C8.715 20.9766 8.51725 21.0728 8.3125 21.0728Z" fill="white"/>
</g>
<defs>
<clipPath id="clip0_8466_1487">
<rect width="21" height="21" fill="white" transform="translate(0 0.947815)"/>
</clipPath>
</defs>
</svg>
