<svg width="17" height="19" viewBox="0 0 17 19" fill="none" xmlns="http://www.w3.org/2000/svg">
<path fill-rule="evenodd" clip-rule="evenodd" d="M12.0096 0.788574H4.99045C2.23886 0.788574 0 3.00504 0 5.72912V13.1441C0 15.8685 2.23886 18.0846 4.99045 18.0846H12.0096C14.7615 18.0846 17 15.8682 17 13.1441V5.72912C17.0004 3.00504 14.7615 0.788574 12.0096 0.788574ZM15.7205 13.1441C15.7205 15.1698 14.0557 16.818 12.0096 16.818H4.99045C2.94427 16.818 1.27945 15.1698 1.27945 13.1441V5.72912C1.27945 3.7034 2.94427 2.05523 4.99045 2.05523H12.0096C14.0557 2.05523 15.7205 3.7034 15.7205 5.72912V13.1441ZM8.52284 4.81783C7.31419 4.78278 6.16319 5.23077 5.28151 6.07834C4.37721 6.94795 3.85864 8.16331 3.85864 9.41262C3.85864 11.9463 5.94095 14.0078 8.50021 14.0078C9.73588 14.0078 10.8964 13.5291 11.7671 12.6595C12.6265 11.8014 13.1144 10.6544 13.1414 9.4296C13.1695 8.14994 12.7721 7.03755 11.9912 6.21238C11.1675 5.34169 9.96797 4.85938 8.52284 4.81783ZM11.5777 9.39564C11.5397 11.1135 10.188 12.4593 8.49985 12.4593C6.81167 12.4593 5.42238 11.0926 5.42238 9.41262C5.42238 8.57914 5.76797 7.76879 6.3712 7.18929C6.92626 6.65567 7.64153 6.36448 8.39293 6.36448C8.42102 6.36448 8.44912 6.36484 8.47722 6.36556C9.49684 6.39483 10.3172 6.70806 10.8496 7.27094C11.3449 7.79444 11.5967 8.52929 11.5777 9.39564ZM14.3362 4.68778C14.3362 5.27958 13.8516 5.75934 13.2538 5.75934C12.656 5.75934 12.1714 5.27958 12.1714 4.68778C12.1714 4.09597 12.656 3.61621 13.2538 3.61621C13.8516 3.61621 14.3362 4.09597 14.3362 4.68778Z" fill="white"/>
</svg>
