<svg xmlns="http://www.w3.org/2000/svg" width="50" height="50" fill="none"><circle cx="25" cy="25" r="25" fill="#004370" opacity="1"/><g clip-path="url(#a)"><path fill="#fff" fill-rule="evenodd" d="M25.1 15a9.74 9.74 0 0 0-8.34 14.77L15 35l5.4-1.73A9.74 9.74 0 1 0 25.1 15Zm0 17.85c-1.64 0-3.18-.5-4.46-1.34l-3.12 1 1.02-3.01a8.12 8.12 0 1 1 14.68-4.76 8.12 8.12 0 0 1-8.12 8.11Zm4.57-5.9c-.24-.13-1.44-.77-1.67-.87-.22-.09-.39-.14-.56.1-.18.25-.68.8-.83.95-.15.16-.3.18-.54.04-.24-.13-1.03-.42-1.95-1.3a7.5 7.5 0 0 1-1.32-1.78c-.14-.25 0-.38.13-.5l.39-.42c.13-.14.17-.25.26-.4.09-.17.05-.32 0-.45-.06-.12-.51-1.36-.7-1.87-.19-.5-.4-.43-.55-.44-.14 0-.3-.03-.47-.03a.91.91 0 0 0-.68.28c-.23.24-.9.82-.94 2.04-.05 1.23.8 2.44.91 2.61.12.17 1.62 2.83 4.11 3.92 2.5 1.09 2.5.75 2.96.73.46-.02 1.5-.55 1.72-1.12.23-.57.25-1.07.2-1.18-.06-.1-.23-.17-.47-.3Z" clip-rule="evenodd"/></g><defs><clipPath id="a"><path fill="#fff" d="M15 15h19.85v20H15z"/></clipPath></defs></svg>